<svg width="25" height="22" viewBox="0 0 25 22" fill="none" xmlns="http://www.w3.org/2000/svg">
<path d="M21.5275 12.6875L14.4562 19.76C13.9874 20.2287 13.3516 20.4919 12.6887 20.4919C12.0258 20.4919 11.39 20.2287 10.9212 19.76L3.84998 12.6887C3.26544 12.1093 2.80111 11.4201 2.48364 10.6607C2.16617 9.90135 2.00182 9.08675 2.00001 8.26369C1.99821 7.44062 2.159 6.62531 2.47314 5.86455C2.78728 5.10379 3.24859 4.41258 3.83058 3.83058C4.41258 3.24859 5.1038 2.78728 5.86455 2.47314C6.62531 2.159 7.44062 1.99821 8.26369 2.00001C9.08675 2.00182 9.90135 2.16617 10.6607 2.48364C11.4201 2.80111 12.1093 3.26544 12.6887 3.84998C13.8657 2.70232 15.4474 2.06456 17.0913 2.07486C18.7351 2.08516 20.3087 2.74269 21.4712 3.90501C22.6337 5.06733 23.2914 6.64084 23.302 8.28469C23.3125 9.92855 22.675 11.5104 21.5275 12.6875Z" stroke="url(#paint0_linear_67_77)" stroke-width="2.5" stroke-linecap="round" stroke-linejoin="round"/>
<defs>
<linearGradient id="paint0_linear_67_77" x1="12.6511" y1="2" x2="12.6511" y2="20.4919" gradientUnits="userSpaceOnUse">
<stop stop-color="#828282"/>
<stop offset="1" stop-color="#2A2D33"/>
</linearGradient>
</defs>
</svg>
