<svg width="25" height="22" viewBox="0 0 25 22" fill="none" xmlns="http://www.w3.org/2000/svg">
<path d="M21.5275 12.1794L14.4562 19.2519C13.9874 19.7206 13.3516 19.9839 12.6887 19.9839C12.0258 19.9839 11.39 19.7206 10.9212 19.2519L3.84998 12.1807C3.26544 11.6012 2.80111 10.912 2.48364 10.1527C2.16617 9.39329 2.00182 8.57869 2.00001 7.75563C1.99821 6.93257 2.159 6.11725 2.47314 5.3565C2.78728 4.59574 3.24859 3.90452 3.83058 3.32253C4.41258 2.74053 5.1038 2.27922 5.86455 1.96508C6.62531 1.65094 7.44062 1.49016 8.26369 1.49196C9.08675 1.49376 9.90135 1.65811 10.6607 1.97558C11.4201 2.29305 12.1093 2.75739 12.6887 3.34192C13.8657 2.19426 15.4474 1.5565 17.0913 1.5668C18.7351 1.5771 20.3087 2.23463 21.4712 3.39695C22.6337 4.55927 23.2914 6.13279 23.302 7.77664C23.3125 9.42049 22.675 11.0023 21.5275 12.1794Z" stroke="url(#paint0_linear_67_105)" stroke-width="2.5" stroke-linecap="round" stroke-linejoin="round"/>
<defs>
<linearGradient id="paint0_linear_67_105" x1="12.6511" y1="1.49194" x2="12.6511" y2="19.9839" gradientUnits="userSpaceOnUse">
<stop stop-color="#FE4545"/>
<stop offset="1" stop-color="#982929"/>
</linearGradient>
</defs>
</svg>
