<svg width="26" height="25" viewBox="0 0 26 25" fill="none" xmlns="http://www.w3.org/2000/svg">
<path d="M24.25 16.25L20.3925 12.3925C19.9237 11.9238 19.2879 11.6605 18.625 11.6605C17.9621 11.6605 17.3263 11.9238 16.8575 12.3925L5.5 23.75M4.25 1.25H21.75C23.1307 1.25 24.25 2.36929 24.25 3.75V21.25C24.25 22.6307 23.1307 23.75 21.75 23.75H4.25C2.86929 23.75 1.75 22.6307 1.75 21.25V3.75C1.75 2.36929 2.86929 1.25 4.25 1.25ZM11.75 8.75C11.75 10.1307 10.6307 11.25 9.25 11.25C7.86929 11.25 6.75 10.1307 6.75 8.75C6.75 7.36929 7.86929 6.25 9.25 6.25C10.6307 6.25 11.75 7.36929 11.75 8.75Z" stroke="black" stroke-width="2" stroke-linecap="round" stroke-linejoin="round"/>
</svg>
