<svg width="25" height="23" viewBox="0 0 25 23" fill="none" xmlns="http://www.w3.org/2000/svg">
<path d="M24.6338 10.366L14.6337 0.365984C14.4589 0.191222 14.2362 0.0722138 13.9938 0.0240044C13.7513 -0.0242051 13.5001 0.000548691 13.2717 0.0951362C13.0433 0.189724 12.8481 0.349898 12.7107 0.55541C12.5734 0.760923 12.5001 1.00255 12.5 1.24973V5.68098C9.08536 5.99697 5.91153 7.57581 3.59961 10.1085C1.28769 12.6412 0.00408966 15.9455 0 19.3747V21.2497C0.00019732 21.5092 0.0811371 21.7622 0.231593 21.9736C0.382048 22.185 0.594562 22.3443 0.839657 22.4295C1.08475 22.5147 1.35028 22.5215 1.59941 22.449C1.84854 22.3764 2.06893 22.2282 2.23 22.0247C3.45481 20.5686 4.95743 19.3711 6.65012 18.5021C8.34282 17.6332 10.1917 17.1101 12.0887 16.9635C12.1512 16.956 12.3075 16.9435 12.5 16.931V21.2497C12.5001 21.4969 12.5734 21.7385 12.7107 21.9441C12.8481 22.1496 13.0433 22.3097 13.2717 22.4043C13.5001 22.4989 13.7513 22.5237 13.9938 22.4755C14.2362 22.4273 14.4589 22.3082 14.6337 22.1335L24.6338 12.1335C24.8681 11.8991 24.9997 11.5812 24.9997 11.2497C24.9997 10.9183 24.8681 10.6004 24.6338 10.366ZM15 18.2322V15.6247C15 15.2932 14.8683 14.9753 14.6339 14.7409C14.3995 14.5064 14.0815 14.3747 13.75 14.3747C13.4312 14.3747 12.13 14.4372 11.7975 14.481C8.42849 14.791 5.22159 16.071 2.565 18.166C2.86655 15.409 4.17442 12.8602 6.23819 11.0074C8.30196 9.1547 10.9766 8.12829 13.75 8.12473C14.0815 8.12473 14.3995 7.99304 14.6339 7.75862C14.8683 7.5242 15 7.20625 15 6.87473V4.26723L21.9825 11.2497L15 18.2322Z" fill="url(#paint0_linear_67_75)"/>
<defs>
<linearGradient id="paint0_linear_67_75" x1="0" y1="11.2497" x2="24.9997" y2="11.2497" gradientUnits="userSpaceOnUse">
<stop stop-color="#828282"/>
<stop offset="1" stop-color="#2A2D33"/>
</linearGradient>
</defs>
</svg>
