<svg width="25" height="23" viewBox="0 0 25 23" fill="none" xmlns="http://www.w3.org/2000/svg">
<path d="M24.6338 10.8654L14.6337 0.865434C14.4589 0.690672 14.2362 0.571664 13.9938 0.523455C13.7513 0.475246 13.5001 0.499999 13.2717 0.594587C13.0433 0.689174 12.8481 0.849349 12.7107 1.05486C12.5734 1.26037 12.5001 1.502 12.5 1.74918V6.18043C9.08536 6.49642 5.91153 8.07526 3.59961 10.608C1.28769 13.1407 0.00408966 16.445 0 19.8742V21.7492C0.00019732 22.0087 0.0811371 22.2616 0.231593 22.473C0.382048 22.6844 0.594562 22.8438 0.839657 22.929C1.08475 23.0141 1.35028 23.0209 1.59941 22.9484C1.84854 22.8759 2.06893 22.7276 2.23 22.5242C3.45481 21.0681 4.95743 19.8706 6.65012 19.0016C8.34282 18.1326 10.1917 17.6095 12.0887 17.4629C12.1512 17.4554 12.3075 17.4429 12.5 17.4304V21.7492C12.5001 21.9964 12.5734 22.238 12.7107 22.4435C12.8481 22.649 13.0433 22.8092 13.2717 22.9038C13.5001 22.9984 13.7513 23.0231 13.9938 22.9749C14.2362 22.9267 14.4589 22.8077 14.6337 22.6329L24.6338 12.6329C24.8681 12.3985 24.9997 12.0806 24.9997 11.7492C24.9997 11.4177 24.8681 11.0998 24.6338 10.8654ZM15 18.7317V16.1242C15 15.7927 14.8683 15.4747 14.6339 15.2403C14.3995 15.0059 14.0815 14.8742 13.75 14.8742C13.4312 14.8742 12.13 14.9367 11.7975 14.9804C8.42849 15.2905 5.22159 16.5705 2.565 18.6654C2.86655 15.9085 4.17442 13.3596 6.23819 11.5069C8.30196 9.65415 10.9766 8.62774 13.75 8.62418C14.0815 8.62418 14.3995 8.49249 14.6339 8.25807C14.8683 8.02365 15 7.7057 15 7.37418V4.76668L21.9825 11.7492L15 18.7317Z" fill="url(#paint0_linear_67_102)"/>
<defs>
<linearGradient id="paint0_linear_67_102" x1="12.4999" y1="0.499451" x2="12.4999" y2="22.9989" gradientUnits="userSpaceOnUse">
<stop stop-color="#5395FF"/>
<stop offset="1" stop-color="#325999"/>
</linearGradient>
</defs>
</svg>
