<svg width="27" height="25" viewBox="0 0 27 25" fill="none" xmlns="http://www.w3.org/2000/svg">
<path d="M18.5 23.5V21C18.5 19.6739 17.9732 18.4021 17.0355 17.4645C16.0979 16.5268 14.8261 16 13.5 16H6C4.67392 16 3.40215 16.5268 2.46447 17.4645C1.52678 18.4021 1 19.6739 1 21V23.5M18.5 11L21 13.5L26 8.5M14.75 6C14.75 8.76142 12.5114 11 9.75 11C6.98858 11 4.75 8.76142 4.75 6C4.75 3.23858 6.98858 1 9.75 1C12.5114 1 14.75 3.23858 14.75 6Z" stroke="url(#paint0_linear_67_79)" stroke-width="2" stroke-linecap="round" stroke-linejoin="round"/>
<defs>
<linearGradient id="paint0_linear_67_79" x1="13.5" y1="1" x2="13.5" y2="23.5" gradientUnits="userSpaceOnUse">
<stop stop-color="#828282"/>
<stop offset="1" stop-color="#2A2D33"/>
</linearGradient>
</defs>
</svg>
