<svg width="27" height="25" viewBox="0 0 27 25" fill="none" xmlns="http://www.w3.org/2000/svg">
<path d="M18.5 24V21.5C18.5 20.1739 17.9732 18.9021 17.0355 17.9645C16.0979 17.0268 14.8261 16.5 13.5 16.5H6C4.67392 16.5 3.40215 17.0268 2.46447 17.9645C1.52678 18.9021 1 20.1739 1 21.5V24M18.5 11.5L21 14L26 9M14.75 6.5C14.75 9.26142 12.5114 11.5 9.75 11.5C6.98858 11.5 4.75 9.26142 4.75 6.5C4.75 3.73858 6.98858 1.5 9.75 1.5C12.5114 1.5 14.75 3.73858 14.75 6.5Z" stroke="url(#paint0_linear_67_108)" stroke-width="2" stroke-linecap="round" stroke-linejoin="round"/>
<defs>
<linearGradient id="paint0_linear_67_108" x1="13.5" y1="1.5" x2="13.5" y2="24" gradientUnits="userSpaceOnUse">
<stop stop-color="#73FF6B"/>
<stop offset="1" stop-color="#459940"/>
</linearGradient>
</defs>
</svg>
